<svg width="111" height="155" fill="none" xmlns="http://www.w3.org/2000/svg"><path opacity=".8" d="M71.46 116.016L44.956 89.269m0 0c-4.45-28.655-7.964-44.743-26.7-67.458-4.776 4.304-5.116 8.845-2.946 19.47l.393 1.77M44.956 89.27h22.577m-27.117 26.747L67.1 89.269c4.48-28.655 8.017-44.743 26.88-67.458 4.808 4.304 5.15 8.845 2.965 19.47l-.79 2.95M41.58 116.42c10.886 2.124 18.584 2.189 29.104 0M33.419 27.472C12.01 42.526 4.459 52.727 2 75.276L9.311 73.9c-4.336 33.828.686 46.822 19.168 62.363l.79-9.05L55.55 152m0 0l26.281-24.788.79 9.05c18.482-15.541 23.503-28.535 19.168-62.363l7.311 1.377c-2.46-22.549-10.011-32.75-31.419-47.804M55.55 152l-26.193-24.663m-5.923-69.268l-1.375-3.744c6.805-5.582 10.26-7.614 15.518-8.472 13.069 9.656 21.098 9.632 36.732-.592 6.64 2.404 9.95 4.28 14.732 9.064l-.785 3.744m-64.822 0l4.714 1.817m-4.714-1.817l.786 5.517-8.25 14.188L31.095 93.34l.785 14.188 23.768 23.448 24.16-23.448V93.34L95.13 77.774l-7.66-14.188.785-5.517m0 0l-4.771 1.817m-55.336 0l27.5 10.597 27.836-10.597m-55.336 0l2.947 11.976 11.844 6.553m40.545-18.53l-2.497 11.977-11.785 5.912M36.536 16.96l2.594-3.235 4.39 2.83m31.044.405l-2.45-3.235-4.147 2.83m-16.685-1.617l4.566-3.235 3.97 3.235M25.593 4.022c0 1.116-.838 2.021-1.872 2.021-1.034 0-1.873-.905-1.873-2.021 0-1.117.838-2.022 1.873-2.022 1.034 0 1.872.905 1.872 2.022zm22.843 0c0 1.116-.838 2.021-1.873 2.021-1.034 0-1.872-.905-1.872-2.021 0-1.117.838-2.022 1.873-2.022 1.034 0 1.872.905 1.872 2.022zm18.35 0c0 1.116-.755 2.021-1.686 2.021-.93 0-1.685-.905-1.685-2.021C63.414 2.905 64.17 2 65.1 2c.931 0 1.685.905 1.685 2.022zm20.97 0c0 1.116-.922 2.021-2.06 2.021-1.137 0-2.06-.905-2.06-2.021 0-1.117.923-2.022 2.06-2.022 1.138 0 2.06.905 2.06 2.022zM75.373 31.515H36.325L29.55 13.678l10.758 6.936 6.575-9.315 8.965 9.315 9.164-9.315 6.176 9.315 10.36-6.937-6.176 17.838z" stroke="#FB6F70" stroke-width="3"/></svg>